<?xml version="1.0" encoding="utf-8"?>
<!-- Generator: Adobe Illustrator 26.1.0, SVG Export Plug-In . SVG Version: 6.00 Build 0)  -->
<svg version="1.1" id="Layer_1" xmlns="http://www.w3.org/2000/svg" xmlns:xlink="http://www.w3.org/1999/xlink" x="0px" y="0px"
	 viewBox="0 0 28 28" style="enable-background:new 0 0 28 28;" xml:space="preserve">
<g>
	<path d="M14.1,28h-0.5l0-0.1c-5.6,0-9.4,0-11.5-2.1C0,23.8,0,19.8,0,14.3v-0.7C0,8.4,0,4.2,2.1,2.1C4.2,0,8,0,13.6,0h0.8
		c5.6,0,9.4,0,11.4,2.1c2.1,2.2,2.1,6.1,2.1,11.6v0.6c0,5.5,0,9.5-2.1,11.6C23.8,28,19.9,28,14.1,28z M16.9,16.9
		c-2,2.1-2.2,4.6-2.4,10.1c5.1,0,8.8-0.1,10.6-1.8c1.7-1.8,1.8-5.5,1.8-10.6C21.3,14.8,18.9,15,16.9,16.9z M1,14.6
		c0,4.9,0.1,8.8,1.8,10.6c1.8,1.7,5.3,1.8,10.6,1.8c-0.2-5.5-0.4-8-2.4-10.1C9,15,6.4,14.8,1,14.6z M6.2,13.9
		c2.4,0.3,4.1,0.9,5.5,2.2c1.4,1.5,2,3.2,2.3,5.7c0.3-2.4,0.9-4.1,2.3-5.5l0,0c1.5-1.4,3.1-2,5.5-2.3c-2.4-0.3-4-0.9-5.5-2.2l0,0
		c-1.3-1.4-1.9-3-2.3-5.2c-0.3,2.3-0.9,3.8-2.3,5.1C10.3,13,8.6,13.6,6.2,13.9z M13.4,1C8.3,1,4.6,1,2.7,2.8C1,4.6,1,8.4,1,13.3
		c5.5-0.2,8-0.4,10.1-2.4C13,9,13.2,6.4,13.4,1z M16.9,11.1c2,1.9,4.6,2.1,10,2.3c0-5.1-0.1-8.7-1.8-10.6C23.4,1,19.7,1,14.6,1
		C14.8,6.4,15,9,16.9,11.1z"/>
</g>
</svg>
