<!-- Generator: Adobe Illustrator 21.0.2, SVG Export Plug-In  -->
<svg version="1.1"
	 xmlns="http://www.w3.org/2000/svg" xmlns:xlink="http://www.w3.org/1999/xlink" xmlns:a="http://ns.adobe.com/AdobeSVGViewerExtensions/3.0/"
	 x="0px" y="0px" width="121px" height="146.5px" viewBox="0 0 121 146.5" style="enable-background:new 0 0 121 146.5;"
	 xml:space="preserve">
<style type="text/css">
	.st0{fill:#D91414;}
	.st1{fill:#CACACA;}
	.st2{fill:#FFFFFF;}
</style>
<defs>
</defs>
<rect x="11.2" y="34.2" transform="matrix(0.1045 -0.9945 0.9945 0.1045 -34.9934 74.3001)" class="st0" width="25.2" height="44.7"/>
<rect x="84.9" y="42" transform="matrix(0.1045 -0.9945 0.9945 0.1045 23.2726 154.4967)" class="st0" width="25.2" height="44.7"/>
<rect x="-9.4" y="87.4" transform="matrix(0.1045 -0.9945 0.9945 0.1045 -85.9617 117.1084)" class="st1" width="62.9" height="37.7"/>
<rect x="57.3" y="94.4" transform="matrix(0.1045 -0.9945 0.9945 0.1045 -33.1928 189.7397)" class="st1" width="62.9" height="37.7"/>
<path class="st2" d="M76.5,49.5l0.1-1.4l-12.8-1.3c-3.6,6.5-8.8,20.6-1.7,40.7l-7.9,2.8C47.1,69.9,51,54.6,55,45.8L47.5,45l-0.1,1.4
	l-2.6,25L44.1,77l-6.6,62.5l-0.3,2.8l29.2,3.1l0.3-2.8l6.6-62.5l0.6-5.6L76.5,49.5z"/>
<path class="st0" d="M32.8,20.8c-1.5-3.5-1.1-6.8,1.3-9.9c1.5-1.9,3.4-2.7,5.8-2.5c6.6,0.7,16.6,9.8,19,27.3
	C47.3,35,36.1,28.5,32.8,20.8 M93.1,14c2.4,0.3,4.1,1.4,5.1,3.6c1.7,3.5,1.4,6.8-0.8,9.9c-4.9,6.9-17.1,10.9-28.6,9.2
	C74.9,20.2,86.5,13.3,93.1,14 M54.3,90.3l7.9-2.8c-7.1-20.1-1.9-34.2,1.7-40.7c0.5-0.8,0.9-1.5,1.3-2.1c1.4,0.3,2.8,0.5,4.2,0.7
	c14.2,1.5,28.5-3.8,34.9-12.9c4-5.6,4.5-12.2,1.5-18.4c-2.3-4.8-6.5-7.8-11.8-8.3c-11.4-1.2-22.2,7.9-29,19.8
	C60.8,12.4,52.1,1.3,40.7,0.1c-5.3-0.6-10,1.5-13.3,5.7c-4.2,5.5-5.1,12-2.3,18.3C29.4,34.1,42,42.2,55.9,43.9
	c-0.3,0.6-0.6,1.2-0.9,1.9C51,54.6,47.1,69.9,54.3,90.3"/>
</svg>