<?xml version="1.0" encoding="utf-8"?>

<svg version="1.1" id="Layer_1" xmlns="http://www.w3.org/2000/svg" xmlns:xlink="http://www.w3.org/1999/xlink" x="0px" y="0px"
	 viewBox="0 0 512 512" style="enable-background:new 0 0 512 512;" xml:space="preserve">
<g>
	<path d="M278.5,131.1c12.4,2.4,15.1,8,16.8,20.4l0.1,87.2c-0.1,4.8,2.4,19.1,11.1,22.3c1.1,0.4,2.2,0.5,3.1,0.5
		c5.2,0,9-4.5,12.5-8.2c18.8-19.9,32.2-43.5,44.2-67.9c5.3-10.7,9.9-21.9,14.3-33c3.2-8.1,8.2-12.2,17.2-12.2c0.2,0,0.4,0,0.6,0
		l75.5,0.1c2.2,0,4.5,0,6.7,0.4c12.7,2.2,16.2,7.6,12.3,20.1c-6.2,19.5-18.2,35.7-30,52.1c-12.6,17.4-26.1,34.3-38.6,51.8
		c-11.5,16-10.6,24.1,3.7,38c15.8,15.4,32.5,30,46.7,47c6.3,7.6,12.2,15.3,16.7,24.1c6.4,12.5,0.6,26.2-10.6,26.9l-69.4,0
		c-1.6,0.1-3.1,0.2-4.6,0.2c-15.8,0-28.6-7-39.6-18.2c-9.6-9.8-18.5-20.2-27.8-30.3c-3.8-4.1-7.8-8-12.5-11.1
		c-3.6-2.4-7.1-3.5-10.3-3.5c-5.1,0-9.5,3.1-12.9,9.2c-5.5,10.1-6.8,21.2-7.3,32.4c-0.7,16.4-5.7,20.6-22.1,21.4
		c-4,0.2-8,0.3-11.9,0.3c-30.7,0-60-6-87.4-21.6c-27.3-15.6-48.4-37.6-66.9-62.6c-35.9-48.6-63.3-102-88-156.8
		c-5.6-12.4-1.5-19,12.1-19.2c11.3-0.2,22.7-0.3,34-0.3s22.7,0.1,34,0.3c9.2,0.1,15.3,5.4,18.9,14.1c12.3,30.1,27.3,58.8,46.1,85.4
		c5,7.1,10.1,14.2,17.4,19.1c3,2.1,5.8,3.1,8.3,3.1c4.1,0,7.3-2.8,9.7-8.4c2.4-5.7,3.5-11.8,4-17.9c1.8-21,2-41.9-1.1-62.8
		c-1.9-13-9.3-21.5-22.3-23.9c-6.6-1.3-5.6-3.7-2.4-7.5c5.6-6.5,10.8-10.6,21.3-10.6H278.5 M280.2,113.4h-1.7H200
		c-18,0-27.6,8.5-34.7,16.8l0,0l0,0c-1.3,1.5-2.9,3.6-4.2,6.1c-2.7,5.2-3.2,11-1.3,16.3c1.8,5.1,6.4,11.7,18.2,13.9
		c4.6,0.9,7.1,2.5,8.1,9.2c2.6,17.4,2.9,36,1,58.6c-0.1,1.6-0.3,3-0.5,4.4c-2.4-2.8-4.6-5.9-6.8-9c-17.1-24.2-31.6-51-44.1-81.8
		c-6.4-15.8-19.2-24.9-35-25.1c-11.7-0.2-23.2-0.3-34.3-0.3c-11.7,0-23.2,0.1-34.3,0.3c-16.2,0.3-24.1,7.4-27.8,13.2
		c-3.7,5.9-6.8,16-0.1,30.9c30.5,67.8,58.2,117.2,89.9,160.1c22.7,30.8,45.7,52.2,72.3,67.4c28.2,16.1,59.7,24,96.2,24
		c4.1,0,8.4-0.1,12.7-0.3c9.4-0.4,20.1-1.9,28.3-9.7c8.7-8.2,10.2-19.6,10.7-28.5h0c0.5-9.3,1.4-16.9,4.4-23.2
		c2.9,2.1,5.6,4.9,7.9,7.4c2.9,3.2,5.9,6.5,8.7,9.7c6.2,7,12.6,14.1,19.4,21.1c15.3,15.6,32.8,23.5,52.2,23.5c1.7,0,3.5-0.1,5.3-0.2
		l68.8,0l0.6,0l0.6,0c10.6-0.7,19.8-6.6,25.2-16c6.2-10.9,6.1-24.6-0.1-36.6c-5.6-10.7-12.6-19.8-18.8-27.3l0,0l0,0
		c-11.1-13.3-23.5-25-35.4-36.3c-4.1-3.9-8.4-7.9-12.5-11.9c-4.5-4.4-5.8-6.5-6.2-7.3c0.2-0.8,1.1-3,4.5-7.7l0,0l0,0
		c6.5-9.1,13.5-18.3,20.2-27.2c6-8,12.3-16.2,18.3-24.5l1.3-1.9c12-16.6,24.4-33.8,31.2-55.2c1.3-4.2,5.4-17-1.6-28.4
		c-7-11.5-20.2-13.7-24.5-14.5c-3.5-0.6-6.8-0.7-9.6-0.7l-75.4-0.1c-0.3,0-0.5,0-0.7,0c-11.1,0-25.9,4-33.6,23.3
		c-3.9,9.8-8.5,21.1-13.7,31.7l0,0l0,0c-9.4,19.1-21,40.8-37.4,59.4l-0.1-85.5l0-1.2l-0.2-1.2c-1-7.5-2.7-15.4-7.8-22.2
		c-5.1-6.8-12.7-11.1-23.1-13.2L280.2,113.4L280.2,113.4z"/>
</g>
</svg>
